<svg version="1.1" id="Layer_1" xmlns="http://www.w3.org/2000/svg" xmlns:xlink="http://www.w3.org/1999/xlink" x="0px" y="0px"
	 width="100%" viewBox="0 0 496 496" enable-background="new 0 0 496 496" xml:space="preserve">
<path fill="#000000" opacity="1.000000" stroke="none" 
	d="
M161.000046,126.728775 
	C180.494675,126.732140 199.490173,126.631805 218.483734,126.778969 
	C230.099121,126.868965 240.485748,130.487930 248.570145,139.155777 
	C265.987427,157.830048 258.433014,187.085083 233.936050,196.086258 
	C230.525696,197.339355 227.034698,198.379593 222.310577,198.597519 
	C235.340912,208.363678 238.262131,222.714249 243.335541,235.905273 
	C245.545303,241.650742 247.448502,247.534393 249.997726,253.124146 
	C253.564835,260.945862 258.280365,267.745117 268.400055,267.970551 
	C267.579254,271.611786 264.841248,272.797150 262.375336,273.809479 
	C242.483536,281.975677 223.056610,279.174377 211.349838,258.111542 
	C204.465775,245.725754 201.231628,232.113174 197.705994,218.585403 
	C196.447098,213.755051 195.322815,208.872879 193.082275,204.371002 
	C192.065964,202.328964 191.114120,200.087784 188.288315,199.898651 
	C186.802475,201.308289 187.373779,203.078979 187.368881,204.657684 
	C187.319199,220.653198 187.313736,236.648941 187.336624,252.644562 
	C187.349518,261.661224 189.105942,264.024323 197.818558,267.133209 
	C198.235611,267.282013 198.541428,267.742584 199.684464,268.750610 
	C179.154251,268.750610 159.457245,268.750610 139.539413,268.750610 
	C139.804413,268.229034 139.930389,267.559113 140.214157,267.483795 
	C148.968536,265.161102 150.865707,258.966736 150.807358,250.707809 
	C150.558975,215.552368 150.547348,180.393112 150.807632,145.237885 
	C150.868317,137.040878 148.705475,131.207611 140.214218,129.025269 
	C139.952118,128.957901 139.746704,128.600143 139.559326,128.345093 
	C139.481049,128.238541 139.519165,128.046463 139.391876,126.729477 
	C146.467377,126.729477 153.483734,126.729477 161.000046,126.728775 
M187.337738,177.499252 
	C187.341888,182.660080 187.341614,187.820923 187.352722,192.981735 
	C187.356430,194.707245 187.502289,196.165222 189.682938,196.768860 
	C200.172409,199.672501 210.106033,195.818954 215.424393,186.295547 
	C221.827530,174.829605 222.528595,162.544144 219.548798,150.029282 
	C215.852020,134.503311 208.627869,129.251175 192.746536,129.204834 
	C188.161469,129.191467 187.186203,130.850082 187.254303,135.047836 
	C187.478394,148.861893 187.338470,162.681870 187.337738,177.499252 
z"/>
<path fill="#000000" opacity="1.000000" stroke="none" 
	d="
M263.562866,170.753235 
	C272.478760,148.879761 287.073578,133.364944 310.343750,128.484039 
	C335.089905,123.293564 355.830231,131.516525 371.428741,151.168106 
	C383.068115,165.831772 376.486908,185.018539 359.373169,188.369720 
	C350.305939,190.145248 342.801941,187.112457 337.485657,179.763489 
	C332.067810,172.274094 331.302216,164.081604 336.221466,155.901566 
	C338.017670,152.914734 340.337708,150.248291 342.272980,147.338715 
	C347.009644,140.217438 345.375732,134.315979 337.229980,131.650803 
	C321.901917,126.635674 314.993683,128.416336 307.736816,142.788116 
	C302.411957,153.333740 299.918396,164.735855 298.543823,176.300339 
	C296.012115,197.600281 296.708954,218.806000 302.411469,239.637192 
	C304.441895,247.054276 307.173492,254.197678 311.873810,260.425201 
	C317.236969,267.530914 332.094543,269.342865 339.041534,263.819672 
	C340.601044,262.579803 340.683014,261.046600 340.684021,259.372131 
	C340.690369,248.709793 340.677063,238.047424 340.692596,227.385101 
	C340.703583,219.851410 335.674103,216.723251 329.203766,214.788681 
	C332.540161,212.322708 384.132782,212.035110 388.491821,214.216705 
	C388.012238,215.574997 386.634705,215.495010 385.621735,215.897446 
	C380.007324,218.127991 377.310944,222.227036 377.325928,228.243973 
	C377.354553,239.739273 377.341522,251.234772 377.302429,262.730042 
	C377.296326,264.533417 377.644714,266.397339 376.652924,268.394196 
	C372.839355,268.365234 369.650940,265.970367 365.994751,265.152557 
	C356.308563,262.985901 346.998108,265.292267 337.898438,267.582001 
	C305.225525,275.803467 276.816650,255.930954 265.466919,229.943680 
	C257.018005,210.598297 256.376068,190.997131 263.562866,170.753235 
z"/>
</svg>